<svg xmlns="http://www.w3.org/2000/svg" width="300" height="74" viewBox="0 0 300 74">
  <defs>
    <style>
      .cls-1 {
        fill-rule: evenodd;
      }
    </style>
  </defs>
  <path id="KLOKERS_Logo_N.svg" class="cls-1" d="M858.342,178.343l-27.434-31.555L853.084,128.8h-6.41l-24.856,19.972V105.388L812,111.107v67.236h9.818V151.218l23.566,27.125h12.958Zm7.03,0h9.818V105.086l-9.818,5.717v67.54ZM926.29,152.3c0,5.422-1.456,9.836-4.326,13.112a15.827,15.827,0,0,1-23.078-.057c-2.836-3.287-4.274-7.771-4.274-13.326,0-5.2,1.47-9.512,4.374-12.828a15.64,15.64,0,0,1,22.978,0c2.87,3.272,4.326,7.68,4.326,13.1m2.26,19.034a28.365,28.365,0,0,0,.038-38.126,25.077,25.077,0,0,0-36.228-.048,26.071,26.071,0,0,0-7.386,18.659c0,7.744,2.436,14.257,7.238,19.361A23.682,23.682,0,0,0,910.218,179a24.692,24.692,0,0,0,18.332-7.664m61.96,7.008-27.432-31.555L985.256,128.8h-6.408l-24.854,19.972V105l-9.822,5.721v67.622h9.822V151.218l23.56,27.125H990.51Zm38.21-31.381h-26.37l0.39-1.463a15.083,15.083,0,0,1,1.79-4.208,13.116,13.116,0,0,1,2.87-3.2,12.467,12.467,0,0,1,3.73-2.047,13.166,13.166,0,0,1,4.36-.711c6.76,0,11.08,3.424,12.85,10.169Zm9.27,7.169,0.03-1.59c0-7.942-2.06-14.225-6.1-18.665s-9.67-6.7-16.69-6.7c-6.96,0-12.61,2.322-16.8,6.9-4.184,4.677-6.3,10.906-6.3,18.533,0,7.682,2.186,13.909,6.5,18.521,4.294,4.547,10.084,6.862,17.224,6.862a29.4,29.4,0,0,0,7-.795,20.562,20.562,0,0,0,5.91-2.469,24.362,24.362,0,0,0,5.18-4.344,37.182,37.182,0,0,0,4.04-5.413l-7.81-4.354a27.71,27.71,0,0,1-6.04,7.033,13.06,13.06,0,0,1-7.87,2.3,13.474,13.474,0,0,1-9.97-3.968,16.454,16.454,0,0,1-4.36-10.6l-0.1-1.259h36.16Zm35.42-15.393,4.23-8.474a16.971,16.971,0,0,0-8.06-2.3,11.917,11.917,0,0,0-5.45,1.166,21.123,21.123,0,0,0-5.37,4.362l-2.02,2.113v-6.244h-9.28v47.978h9.28V152.427c0-10.31,3.6-15.534,10.68-15.534a11.537,11.537,0,0,1,5.99,1.845m16.24,0.872a4.658,4.658,0,0,1,1.51-3.566,5.007,5.007,0,0,1,3.52-1.368c2.42,0,4.47,1.407,6.11,4.19l7.58-4.038c-2.94-5.586-7.13-8.306-12.8-8.306a14.726,14.726,0,0,0-10.37,3.978,13.279,13.279,0,0,0-4.11,9.993,11.13,11.13,0,0,0,2.36,7.361,20.777,20.777,0,0,0,6.74,4.66c1.2,0.581,2.38,1.145,3.55,1.691s2.35,1.133,3.53,1.719c3.46,2.041,5.19,4.332,5.19,6.831,0,2.447-.92,6.539-7.05,6.539a8.358,8.358,0,0,1-5.86-2.269,18.55,18.55,0,0,1-2.83-3.95l-7.9,3.668c3.38,7.132,8.74,10.6,16.38,10.6a17.212,17.212,0,0,0,11.82-4.35,14.745,14.745,0,0,0,4.98-11.3,11.465,11.465,0,0,0-2.88-8.222c-2.01-2.111-6.07-4.484-12.05-7.061-5-2.11-7.42-4.335-7.42-6.8" transform="translate(-812 -105)"/>
</svg>
